<svg data-name="Layer 2" xmlns="http://www.w3.org/2000/svg" viewBox="0 0 1000 500"><title>ARC_FULL</title><path d="M957.77 289.62a43.61 43.61 0 0 1-9.2 1c-30.13 0-37.92-35.79-37.92-35.79S901 212 939.76 203.65L897.53 2c-9.76 1.73-12.83 2.3-17 3.19-54 11.65-99.7 43-131.85 85.84q2.55 5.72 4.73 11.66a171 171 0 0 1 10.75 58.13c0 34.74-5.17 57.43-15.81 81.7-9.65 22-25.86 40.71-45.25 56.85C730.08 415 831.72 500 938.65 500a216.37 216.37 0 0 0 45.68-4.87c4.15-.89 6.06-1.4 15.68-3.85z"/><path d="M747.73 156.07C747.73 93.11 699.55 1 575.53 1H373.65v186.9s162 294.22 162 294.19v-54.22S574.15 500 574.18 500h172.23s-59.15-210.07-59.13-210.08c43.25-31.42 60.45-72.62 60.45-133.85zM554.65 189v-40c10 .83 20 10.13 20 20s-9 20-20 20zM0 500h222.53l33.44-72.13L289.41 500h235.75L255.97 0 0 500z"/></svg>